<svg xmlns="http://www.w3.org/2000/svg" viewBox="0 0 184.99 104.86"><defs><style>.cls-1{fill:#1d1d1b;}.cls-2{font-size:33px;font-family:Calibri-Light, Calibri;font-weight:300;letter-spacing:0.05em;}</style></defs><g id="Слой_2" data-name="Слой 2"><g id="Слой_2-2" data-name="Слой 2"><path class="cls-1" d="M39.79,71.57c0-1.84-4.39-1.66-7.83-5.44-4.15-4.58-3.93-12.86-.47-16.47,1.12-1.16.59-1.44,14.26-4.3,2.8-.58,3.62-.77,4.6-1.53,4.11-3.21,1.52-9.2,4.93-11.57,1.69-1.18,2.72,0,10.72.51a69.08,69.08,0,0,0,9.37,0,62,62,0,0,0,9.87-1.71c8.71-2,13.05-3,16.17-3.91,9-2.53,28.78-8.35,54.81-16.34a13.36,13.36,0,0,0,7.32,4.76c.87.2,4.78,1.1,6-.51,1.72-2.36-4.71-12-4.85-12.25C160.16,2.53,154,5.73,147,8.68c-3.83,1.62-6.59,3-7.32,3.32-9.74,3.76-21.15,6-65.32,16.6-.59-.39-2.19-.33-2.6-1.45-1.09-3,2.61-5.46,2.21-8.68-.35-2.91-3.93-5.52-7.14-6.13-3.72-.71-8,2-16.51,7.49-5.24,3.38-5.52,3-7.49,3.53-3.46,1-5.71,1.1-14.64-1.15-11.75-3-12.88-3-14.3-2.72-5.26,1-9.68,5-11.92,9.19-4.42,8.25-.56,17.47,2.39,24.51A44.84,44.84,0,0,0,16,69.36c3.4,3,6.82,5.94,11.92,6.47C33.66,76.43,39.79,73.75,39.79,71.57Z"/><circle class="cls-1" cx="149.13" cy="5.55" r="1.85"/><circle class="cls-1" cx="154.05" cy="3.7" r="1.85"/><circle class="cls-1" cx="159.54" cy="1.85" r="1.85"/><text/><text/><path d="M49.87,71.36a8.44,8.44,0,0,1-8.2-5.29,14.6,14.6,0,0,1-1.1-5.87,13.85,13.85,0,0,1,1.15-5.89,8.56,8.56,0,0,1,3.35-3.82,10.33,10.33,0,0,1,5.46-1.35,10.19,10.19,0,0,1,4.7,1,7.29,7.29,0,0,1,3,2.65,9.54,9.54,0,0,1,1.38,3.92h-4.4a5,5,0,0,0-1.52-3,4.66,4.66,0,0,0-3.19-1,4.42,4.42,0,0,0-4,2,10.26,10.26,0,0,0-1.31,5.63A10.14,10.14,0,0,0,46.56,66a4.55,4.55,0,0,0,4,2A4.44,4.44,0,0,0,54,66.65a5.5,5.5,0,0,0,1.35-3.54h-6V59.79H59.61V71H56.28V68.5h-.66a5.2,5.2,0,0,1-1.89,2A7,7,0,0,1,49.87,71.36Z"/><path d="M72.2,71.39c-3.1,0-5.4-.8-6.92-2.41S63,65.09,63,62.1V49.53h4.67V62a7.28,7.28,0,0,0,1,4.12,4,4,0,0,0,3.56,1.49c1.73,0,2.92-.5,3.58-1.49a7.36,7.36,0,0,0,1-4.12V49.53h4.56V62.1q0,4.49-2.25,6.88T72.2,71.39Z"/><path d="M85.29,71V49.53h4.62V71Z"/><path d="M99.18,71V53.16H92.82V49.53h17.33v3.63H103.8V71Z"/><path d="M108.44,71v-.17l6.47-21.28h7.23l6.49,21.28V71H123.9L118.7,53.1H118L112.79,71Zm5.37-5.36,1-3.47H122l1,3.47Z"/><path d="M130.94,71V49.53H140a10.93,10.93,0,0,1,4.47.78A5.48,5.48,0,0,1,147,52.46a6,6,0,0,1,.81,3.15,5.9,5.9,0,0,1-1.07,3.52,5.83,5.83,0,0,1-3.16,2.11l4.81,9.57V71h-4.9l-4.37-9.08H135.5V71Zm4.56-12.43h3.88a5.35,5.35,0,0,0,2.79-.61,2.84,2.84,0,0,0,0-4.35,5.49,5.49,0,0,0-2.78-.6H135.5Z"/><text class="cls-2" transform="translate(64.26 96)">SCHOOL</text></g></g></svg>