<svg xmlns="http://www.w3.org/2000/svg" viewBox="0 0 623.46 483.03"><defs><style>.cls-1{fill:none;stroke:#000;}</style></defs><g id="Слой_2" data-name="Слой 2"><g id="Слой_2-2" data-name="Слой 2"><path class="cls-1" d="M.14.48A314,314,0,0,1,41.8,16.31a308,308,0,0,1,47,27.06c19.73,13.79,29.87,21.05,37.79,35.24,3.32,5.94,8.85,15.84,8.68,28.08-.26,18.83-13.84,30.79-29.11,47.49-14.6,16-45.79,50.09-57.7,86.3-4.86,14.78-12.78,39.21-3.57,63.83,13.65,36.51,49.31,31.38,69.95,66.38,23.9,40.52-6.54,76.81,11.24,99.07,13.65,17.08,54.1,23.84,173.59-24.25a45.81,45.81,0,0,1,16.14-3.25,130.37,130.37,0,0,0,14.52-1.1c44.11-5.82,53.69-30.22,88.86-37.28,19.14-3.84,37.44.84,74,10.22,29.22,7.48,36.33,13.42,61.27,18.89a234.54,234.54,0,0,0,68.94,4.6"/></g></g></svg>