<svg xmlns="http://www.w3.org/2000/svg" viewBox="0 0 587.32 48.54"><defs><style>.cls-1{fill:none;stroke:#1d1d1b;stroke-miterlimit:10;}</style></defs><g id="Слой_2" data-name="Слой 2"><g id="Слой_2-2" data-name="Слой 2"><path class="cls-1" d="M.43,45.83A65,65,0,0,1,15.31,28.12c5.39-4.45,11.52-8,27.57-13.61,14.81-5.2,25.52-9,41.19-11.58C102.51-.15,116.19.29,136.5,1.06c22.24.84,39.1,3,49,4.25C229.69,11.05,263,16.65,273,18.25c59.63,9.55,109.08,8.2,131.4,7.49,10.92-.35,98.64-3.16,132.09-7.15,11.6-1.38,23.38.86,35.06.34,5.26-.23,12.92-.72,14.87,3.07.29.55,1.25,2.74-1.59,7.83-6,10.76-18.61,15.94-25.88,18.23"/></g></g></svg>